<svg width="108" height="72" viewBox="0 0 108 72" fill="none" xmlns="http://www.w3.org/2000/svg">
<path d="M23.2987 5.22642C20.5045 5.22642 17.5201 4.96596 14.7488 5.28044C10.5799 5.75351 6.84642 7.72428 4.10078 10.4528C-0.105994 14.6334 0.213901 19.6471 0.213901 24.8255V43.678V49.4644C0.213901 50.3478 0.0365646 51.406 0.306591 52.264C0.61672 53.2496 1.79981 53.6965 2.12526 54.6915C3.19156 57.9517 3.68457 61.4446 4.44616 64.7703C4.74784 66.0877 4.8057 67.9344 5.70785 69.0554C6.26996 69.7539 7.09071 69.8846 7.82868 70.3555C8.40982 70.7264 8.72026 71.2821 9.40836 71.5454C11.4518 72.3273 14.4876 71.8633 16.6725 71.8633C18.3007 71.8633 20.524 72.1758 22.007 71.4594C22.5172 71.2128 22.7923 70.796 23.2119 70.4645C24.3052 69.6008 25.4712 69.5704 25.8637 68.1302H30.9936C31.3299 69.5848 32.5384 69.6303 33.6454 70.4738C34.2789 70.9567 34.6288 71.4624 35.4826 71.6873C36.8155 72.0386 38.381 71.8633 39.7573 71.8633H44.6735C45.642 71.862 46.7817 71.8822 47.6568 71.4594C48.167 71.2128 48.4421 70.796 48.8617 70.4645C49.955 69.6008 51.121 69.5704 51.5135 68.1302H56.6434C56.9796 69.5848 58.1882 69.6303 59.2952 70.4738C59.9287 70.9567 60.2786 71.4624 61.1323 71.6873C62.4653 72.0386 64.0308 71.8633 65.4071 71.8633H70.3233C71.2918 71.862 72.4315 71.8822 73.3066 71.4594C73.8168 71.2128 74.0919 70.796 74.5115 70.4645C75.6048 69.6008 76.7708 69.5704 77.1632 68.1302H82.2932C82.6294 69.5848 83.8379 69.6303 84.9449 70.4738C85.4374 70.8492 85.7403 71.3048 86.3576 71.5548C87.8906 72.1754 90.0525 71.8633 91.6981 71.8633C93.8262 71.8633 96.7571 72.3076 98.7486 71.5454C99.501 71.2574 99.8368 70.6065 100.506 70.2345C101.212 69.8427 101.909 69.6964 102.411 69.0552C103.302 67.9189 103.364 66.0958 103.668 64.7703C104.429 61.4472 104.912 57.9463 105.989 54.6915C106.321 53.689 107.536 53.2619 107.85 52.264C108.12 51.406 107.943 50.3478 107.943 49.4644V43.678V25.0122C107.943 19.6396 108.236 14.5619 103.845 10.2662C101.147 7.62703 97.4603 5.74027 93.4081 5.28044C90.6368 4.96596 87.6523 5.22642 84.8582 5.22642C84.8582 4.1926 85.0317 3.01936 84.5251 2.05395C83.4684 0.039478 81.2762 0 79.087 0H72.247H35.2686H29.0699C26.8069 0 24.4596 0.065965 23.5114 2.2399C23.1153 3.14748 23.2987 4.27118 23.2987 5.22642Z" fill="#3A322B"/>
<path d="M26.8612 1.55574C26.7661 1.63872 26.9918 1.62831 27.0036 1.61797C27.0987 1.53504 26.873 1.54536 26.8612 1.55574Z" fill="#BF8747"/>
<path d="M27.146 1.49317C28.5217 1.99727 30.5764 1.67982 32.0622 1.67982H43.1771H81.2243C79.8486 1.17572 77.7938 1.49317 76.3081 1.49317H65.1932H27.146Z" fill="#F2A751"/>
<path d="M25.0087 5.22645H83.1482C83.148 4.1655 83.2566 2.90746 82.2451 2.13421C81.4536 1.52892 80.2746 1.67995 79.3007 1.67995H72.247H37.1923H29.2836C28.2108 1.67995 26.7849 1.46643 25.9118 2.13421C24.9003 2.90746 25.0089 4.1655 25.0087 5.22645Z" fill="#FFB054"/>
<path d="M25.0797 3.11116C25.0679 3.12154 25.0558 3.31854 25.1513 3.23559C25.1632 3.22525 25.1752 3.02817 25.0797 3.11116Z" fill="#CA8E49"/>
<path d="M83.0054 3.11116C82.9936 3.12154 82.9816 3.31854 83.0771 3.23559C83.0889 3.22523 83.101 3.02818 83.0054 3.11116Z" fill="#BE8646"/>
<path d="M23.085 3.7334V5.22666C23.3331 4.70966 23.3331 4.2504 23.085 3.7334Z" fill="#492424"/>
<path d="M25.0083 5.22664C26.4872 5.76854 28.7532 5.41329 30.352 5.41329H42.1082H83.1478C81.6689 4.87139 79.4029 5.22664 77.8041 5.22664H66.0479H25.0083Z" fill="#473B2E"/>
<path d="M15.1048 6.78225C15.0098 6.86531 15.2354 6.85486 15.2473 6.84459C15.3423 6.76153 15.1167 6.77198 15.1048 6.78225Z" fill="#785535"/>
<path d="M15.3896 6.71973C15.7116 6.84721 15.8844 6.87391 16.2446 6.90638C15.9227 6.7789 15.7499 6.75221 15.3896 6.71973Z" fill="#C78142"/>
<path d="M16.2446 6.71995C16.9788 6.98892 17.8045 6.90661 18.5959 6.90661H23.0846H38.4744H91.9115C91.1208 6.61692 90.1979 6.71995 89.3465 6.71995H85.0715H69.6817H16.2446Z" fill="#EE9649"/>
<path d="M91.9116 6.71973C92.1784 6.84759 92.2425 6.85953 92.5529 6.90638C92.2861 6.77852 92.222 6.76658 91.9116 6.71973Z" fill="#B77840"/>
<path d="M92.5527 6.71973C92.8195 6.84759 92.8836 6.85953 93.194 6.90638C92.9272 6.77852 92.8631 6.76658 92.5527 6.71973Z" fill="#765435"/>
<path d="M13.8936 6.90625C14.1604 7.03411 14.2245 7.04606 14.5348 7.09291C14.2679 6.96505 14.2039 6.9531 13.8936 6.90625Z" fill="#99673B"/>
<path d="M1.92373 47.7848H3.63372C3.63372 46.061 3.7715 44.4257 4.25254 42.7451C4.58511 41.5831 5.25754 40.3965 5.33447 39.1986C5.63207 34.5637 5.3437 29.8421 5.3437 25.1992C5.3437 20.7853 5.44588 16.8332 9.19959 13.4405C14.6314 8.53104 22.6126 9.70661 29.711 9.70661H78.4456C85.5529 9.70661 93.5193 8.52563 98.957 13.4405C102.825 16.9368 102.813 21.0394 102.813 25.5725C102.813 30.2959 102.675 35.037 102.816 39.7585C102.85 40.88 103.384 41.8665 103.722 42.9317C104.22 44.501 104.522 46.1587 104.523 47.7848H106.233V25.0126C106.233 19.9582 106.381 14.9793 102.152 11.0134C96.4113 5.62915 87.7624 6.90675 80.1555 6.90675H27.5735C19.946 6.90675 11.4596 5.67967 5.80831 11.1999C1.69293 15.2199 1.92373 20.1568 1.92373 25.1992V47.7848Z" fill="#FB9E4B"/>
<path d="M93.7641 6.96877C93.6689 7.05183 93.8947 7.04138 93.9064 7.03112C94.0015 6.94805 93.7758 6.95851 93.7641 6.96877Z" fill="#97663A"/>
<path d="M13.3949 7.1553C13.2999 7.23836 13.5255 7.22791 13.5373 7.21764C13.6324 7.13458 13.4067 7.14503 13.3949 7.1553Z" fill="#D88A45"/>
<path d="M94.8329 7.1553C94.7378 7.23836 94.9635 7.22791 94.9753 7.21764C95.0704 7.13458 94.8447 7.14503 94.8329 7.1553Z" fill="#6A4D33"/>
<path d="M17.0287 9.76858C16.9337 9.85164 17.1593 9.84119 17.1711 9.83092C17.2661 9.74786 17.0405 9.75831 17.0287 9.76858Z" fill="#B1743F"/>
<path d="M17.3135 9.70605C17.6354 9.83354 17.8083 9.86023 18.1685 9.89271C17.8466 9.76523 17.6737 9.73853 17.3135 9.70605Z" fill="#634932"/>
<path d="M18.1685 9.70582C19.9037 10.3418 22.7006 9.89247 24.5809 9.89247H39.3295H90.2016C88.4664 9.25653 85.6695 9.70582 83.7891 9.70582H69.0405H18.1685Z" fill="#473A2D"/>
<path d="M90.2017 9.70605C90.4684 9.83392 90.5325 9.84586 90.8429 9.89271C90.5761 9.76485 90.512 9.75291 90.2017 9.70605Z" fill="#825A37"/>
<path d="M90.9857 9.76858C90.8906 9.85164 91.1163 9.84119 91.1281 9.83092C91.2232 9.74786 90.9975 9.75831 90.9857 9.76858Z" fill="#CB8343"/>
<path d="M15.9598 9.9551C15.8648 10.0382 16.0904 10.0277 16.1023 10.0174C16.1973 9.93438 15.9717 9.94483 15.9598 9.9551Z" fill="#95653B"/>
<path d="M91.6978 9.89258C91.9645 10.0204 92.0286 10.0324 92.339 10.0792C92.0722 9.95138 92.0081 9.93943 91.6978 9.89258Z" fill="#99663B"/>
<path d="M15.3187 10.1416C15.2237 10.2247 15.4493 10.2142 15.4612 10.204C15.5562 10.1209 15.3306 10.1314 15.3187 10.1416Z" fill="#5F4631"/>
<path d="M92.9091 10.1416C92.814 10.2247 93.0397 10.2142 93.0514 10.204C93.1465 10.1209 92.9208 10.1314 92.9091 10.1416Z" fill="#D28744"/>
<path d="M17.2425 11.2617C17.1475 11.3448 17.3731 11.3344 17.385 11.3241C17.48 11.241 17.2544 11.2515 17.2425 11.2617Z" fill="#8A653C"/>
<path d="M17.5273 11.2C19.2626 11.8359 22.0594 11.3866 23.9398 11.3866H38.6884H89.988C88.2528 10.7507 85.4559 11.2 83.5755 11.2H68.8269H17.5273Z" fill="#F2A751"/>
<path d="M89.9878 11.1992C90.2546 11.3271 90.3187 11.339 90.629 11.3859C90.3623 11.258 90.2982 11.2461 89.9878 11.1992Z" fill="#BE8646"/>
<path d="M90.7719 11.2617C90.6767 11.3448 90.9025 11.3344 90.9142 11.3241C91.0093 11.241 90.7836 11.2515 90.7719 11.2617Z" fill="#6A5135"/>
<path d="M16.3875 11.4483C16.2925 11.5313 16.5182 11.5209 16.53 11.5106C16.625 11.4275 16.3994 11.438 16.3875 11.4483Z" fill="#D1934B"/>
<path d="M7.05372 36.3983C8.01915 35.6285 8.69325 34.6142 9.63783 33.817C11.72 32.0596 14.4067 30.9408 17.3136 31.5452C17.9092 29.7131 18.6958 27.9462 19.8382 26.3187C20.672 25.1308 21.6615 23.9555 22.8743 23.0408C24.1072 22.1109 25.5301 21.3034 27.146 21.0023C31.4475 20.2008 35.3721 23.6975 37.2412 26.6921C37.9572 27.8393 38.5711 28.9984 39.0448 30.2386C39.2361 30.7397 39.3596 31.5808 39.8775 31.9133C40.5842 32.367 42.0992 32.112 42.9634 32.2918C44.5879 27.295 49.8194 19.328 57.0708 22.2727C58.0869 22.6854 59.0144 23.2895 59.8412 23.9461C62.4914 26.0514 63.5788 28.7858 64.9795 31.5452C66.2119 31.3454 67.3863 31.29 68.6132 31.5452C69.7099 28.1713 71.5815 24.7923 74.8119 22.5884C77.124 21.0111 79.9921 20.3446 82.7206 21.536C83.7241 21.9741 84.6445 22.5899 85.463 23.2557C87.3435 24.7855 88.701 26.6962 89.7129 28.7453C90.1443 29.619 90.3059 31.1065 91.0426 31.8059C91.4629 32.2046 92.2114 32.0895 92.7667 32.1124C93.6489 32.149 94.5205 32.3383 95.3317 32.6425C97.7505 33.5497 99.3942 35.3289 100.889 37.1449C101.244 36.4059 101.103 35.5135 101.103 34.7183V30.4252C101.103 24.2173 102.473 16.4757 95.3317 12.7315C92.5393 11.2674 89.7033 11.3861 86.568 11.3861H76.0944H30.9935H21.8023C17.8467 11.3861 14.2242 11.3301 11.1149 13.83C7.0223 17.1206 7.05372 21.2469 7.05372 25.7588V36.3983Z" fill="#B67325"/>
<path d="M91.8407 11.4483C91.7456 11.5313 91.9713 11.5209 91.9831 11.5106C92.0782 11.4275 91.8525 11.438 91.8407 11.4483Z" fill="#695035"/>
<path d="M15.5326 11.6348C15.4376 11.7179 15.6632 11.7074 15.675 11.6971C15.7701 11.6141 15.5444 11.6245 15.5326 11.6348Z" fill="#CC8F49"/>
<path d="M92.4818 11.6348C92.3867 11.7179 92.6124 11.7074 92.6242 11.6971C92.7193 11.6141 92.4936 11.6245 92.4818 11.6348Z" fill="#946C3E"/>
<path d="M2.4225 16.5506C2.41057 16.5609 2.39868 16.758 2.49405 16.675C2.50597 16.6647 2.5179 16.4676 2.4225 16.5506Z" fill="#B0743F"/>
<path d="M2.20863 17.2967C2.1967 17.307 2.18481 17.5041 2.28019 17.4211C2.29208 17.4108 2.30405 17.2137 2.20863 17.2967Z" fill="#A46E3C"/>
<path d="M1.99477 18.2303C1.98284 18.2406 1.97092 18.4377 2.06632 18.3546C2.07824 18.3444 2.09017 18.1473 1.99477 18.2303Z" fill="#845C37"/>
<path d="M102.243 18.4169C102.231 18.4271 102.219 18.6242 102.314 18.5412C102.326 18.5309 102.338 18.3338 102.243 18.4169Z" fill="#634932"/>
<path d="M1.92383 18.4795V19.2261C2.07563 18.8978 2.07563 18.8078 1.92383 18.4795Z" fill="#D58944"/>
<path d="M7.55238 18.6034C7.54046 18.6136 7.52853 18.8108 7.62393 18.7277C7.63584 18.7174 7.64778 18.5203 7.55238 18.6034Z" fill="#D6954C"/>
<path d="M100.533 18.6034C100.521 18.6136 100.509 18.8108 100.604 18.7277C100.616 18.7174 100.628 18.5203 100.533 18.6034Z" fill="#CA8E49"/>
<path d="M5.62854 18.9774C5.61663 18.9877 5.60472 19.1848 5.7001 19.1017C5.71203 19.0914 5.72394 18.8943 5.62854 18.9774Z" fill="#8A5F38"/>
<path d="M102.457 18.9774C102.445 18.9877 102.433 19.1848 102.528 19.1017C102.54 19.0914 102.552 18.8943 102.457 18.9774Z" fill="#98673A"/>
<path d="M7.3385 19.1639C7.32659 19.1742 7.31468 19.3713 7.41006 19.2882C7.42199 19.278 7.43388 19.0809 7.3385 19.1639Z" fill="#A97942"/>
<path d="M100.747 19.3505C100.735 19.3607 100.723 19.5578 100.818 19.4748C100.83 19.4645 100.842 19.2674 100.747 19.3505Z" fill="#CF914A"/>
<path d="M5.41517 19.91C5.40326 19.9203 5.39132 20.1174 5.48673 20.0343C5.49866 20.0241 5.51055 19.827 5.41517 19.91Z" fill="#A46E3C"/>
<path d="M7.05371 19.7861V20.3461C7.2025 20.056 7.2025 20.0762 7.05371 19.7861Z" fill="#785938"/>
<path d="M102.67 19.91C102.659 19.9203 102.647 20.1174 102.742 20.0343C102.754 20.0241 102.766 19.827 102.67 19.91Z" fill="#B3763F"/>
<path d="M100.961 20.0965C100.949 20.1068 100.937 20.3039 101.032 20.2209C101.044 20.2106 101.056 20.0135 100.961 20.0965Z" fill="#89643C"/>
<path d="M0 20.1592V51.5177C0.378067 50.7309 0.213748 49.751 0.213748 48.9045V43.4914V27.2522V22.5857C0.213748 21.7906 0.355057 20.8982 0 20.1592Z" fill="#492424"/>
<path d="M5.34375 20.1592V20.9058C5.49555 20.5775 5.49555 20.4875 5.34375 20.1592Z" fill="#564230"/>
<path d="M102.599 20.1592V20.9058C102.751 20.5773 102.751 20.4875 102.599 20.1592Z" fill="#634832"/>
<path d="M7.05371 20.3457V21.0923C7.20551 20.7638 7.20551 20.674 7.05371 20.3457Z" fill="#E29D4D"/>
<path d="M100.889 20.3457V21.4657C101.092 21.0391 101.092 20.7722 100.889 20.3457Z" fill="#E09C4E"/>
<path d="M27.0751 20.9678C26.98 21.0509 27.2057 21.0404 27.2174 21.0301C27.3126 20.9471 27.0868 20.9575 27.0751 20.9678Z" fill="#AE7D43"/>
<path d="M27.3599 20.9061C28.0359 21.1538 28.7676 21.0927 29.4973 21.0927C28.8213 20.845 28.0896 20.9061 27.3599 20.9061Z" fill="#654E34"/>
<path d="M29.64 20.9678C29.5449 21.0509 29.7706 21.0404 29.7824 21.0301C29.8775 20.9471 29.6518 20.9575 29.64 20.9678Z" fill="#DB994D"/>
<path d="M78.3744 20.9678C78.2793 21.0509 78.505 21.0404 78.5168 21.0301C78.6119 20.9471 78.3862 20.9575 78.3744 20.9678Z" fill="#AE7D43"/>
<path d="M78.6592 20.9061C79.3353 21.1538 80.0669 21.0927 80.7967 21.0927C80.1206 20.845 79.3889 20.9061 78.6592 20.9061Z" fill="#654E34"/>
<path d="M80.9393 20.9678C80.8442 21.0509 81.0699 21.0404 81.0817 21.0301C81.1768 20.9471 80.9511 20.9575 80.9393 20.9678Z" fill="#DB994D"/>
<path d="M52.7245 21.7149C52.6294 21.7979 52.8551 21.7875 52.8669 21.7772C52.962 21.6941 52.7363 21.7046 52.7245 21.7149Z" fill="#AE7D43"/>
<path d="M53.0098 21.6519C53.6275 21.8784 54.2653 21.8382 54.9335 21.8386C54.3158 21.6122 53.6779 21.6523 53.0098 21.6519Z" fill="#564431"/>
<path d="M55.0761 21.7149C54.9809 21.7979 55.2067 21.7875 55.2184 21.7772C55.3135 21.6941 55.0878 21.7046 55.0761 21.7149Z" fill="#AF7D43"/>
<path d="M27.2885 22.461C27.1933 22.544 27.4191 22.5336 27.4308 22.5233C27.5259 22.4402 27.3002 22.4507 27.2885 22.461Z" fill="#91897F"/>
<path d="M27.7162 22.461C27.6211 22.544 27.8468 22.5336 27.8586 22.5233C27.9537 22.4402 27.728 22.4507 27.7162 22.461Z" fill="#CAC1B6"/>
<path d="M21.5884 26.8791H35.2683C34.2369 24.5377 31.1827 22.3982 28.2146 22.485C25.4237 22.5667 22.5665 24.6707 21.5884 26.8791Z" fill="#FED8B3"/>
<path d="M28.6421 22.3994C28.9088 22.5273 28.973 22.5392 29.2833 22.5861C29.0166 22.4582 28.9525 22.4463 28.6421 22.3994Z" fill="#C9C1B5"/>
<path d="M29.4262 22.461C29.331 22.544 29.5568 22.5336 29.5685 22.5233C29.6636 22.4402 29.4379 22.4507 29.4262 22.461Z" fill="#686058"/>
<path d="M78.5883 22.461C78.4932 22.544 78.7189 22.5336 78.7306 22.5233C78.8257 22.4402 78.6 22.4507 78.5883 22.461Z" fill="#91897F"/>
<path d="M79.0155 22.461C78.9204 22.544 79.1461 22.5336 79.1579 22.5233C79.253 22.4402 79.0273 22.4507 79.0155 22.461Z" fill="#CAC1B6"/>
<path d="M72.8882 26.8791H86.5681C85.5367 24.5377 82.4825 22.3982 79.5144 22.485C76.7235 22.5667 73.8663 24.6707 72.8882 26.8791Z" fill="#FED8B3"/>
<path d="M79.9419 22.3994C80.2087 22.5273 80.2728 22.5392 80.5831 22.5861C80.3164 22.4582 80.2523 22.4463 79.9419 22.3994Z" fill="#C9C1B5"/>
<path d="M80.7255 22.461C80.6304 22.544 80.8561 22.5336 80.8678 22.5233C80.963 22.4402 80.7372 22.4507 80.7255 22.461Z" fill="#686058"/>
<path d="M52.9384 23.208C52.8432 23.2911 53.069 23.2806 53.0807 23.2704C53.1758 23.1873 52.9501 23.1978 52.9384 23.208Z" fill="#91897F"/>
<path d="M53.3661 23.208C53.271 23.2911 53.4967 23.2806 53.5085 23.2704C53.6036 23.1873 53.3779 23.1978 53.3661 23.208Z" fill="#CAC1B6"/>
<path d="M47.8794 26.8784H60.2768C58.0006 22.1838 50.1556 22.1838 47.8794 26.8784Z" fill="#FED8B3"/>
<path d="M54.6483 23.208C54.5532 23.2911 54.7789 23.2806 54.7907 23.2704C54.8858 23.1873 54.6601 23.1978 54.6483 23.208Z" fill="#B6AEA2"/>
<path d="M55.0761 23.208C54.9809 23.2911 55.2067 23.2806 55.2184 23.2704C55.3135 23.1873 55.0878 23.1978 55.0761 23.208Z" fill="#696057"/>
<path d="M47.6659 26.6924C46.9888 27.8034 46.1445 28.8326 45.7422 30.0522H62.4145C61.9434 28.8442 61.1729 27.8116 60.4908 26.6924C58.4557 27.1155 56.1622 26.879 54.0784 26.879C51.9945 26.879 49.701 27.1155 47.6659 26.6924Z" fill="#FED8B3"/>
<path d="M19.665 30.2383H37.1924C36.9004 29.3061 36.3853 27.6197 35.399 27.0703C34.6236 26.6384 33.159 26.8784 32.2762 26.8784H24.795C23.8752 26.8784 22.2911 26.6153 21.4881 27.0703C20.4805 27.6413 19.9647 29.2815 19.665 30.2383Z" fill="#FED8B3"/>
<path d="M70.9644 30.2383H88.4917C88.1997 29.3061 87.6846 27.6197 86.6984 27.0703C85.9229 26.6384 84.4583 26.8784 83.5755 26.8784H76.0943C75.1746 26.8784 73.5905 26.6153 72.7874 27.0703C71.7798 27.6413 71.264 29.2815 70.9644 30.2383Z" fill="#FED8B3"/>
<path d="M44.8872 32.2918H63.2695C63.1524 31.5997 62.9848 30.4874 62.1527 30.1645C61.1932 29.7923 59.6016 30.0519 58.5671 30.0519H50.0172C48.8719 30.0519 47.0636 29.7535 46.004 30.1645C45.1717 30.4874 45.0043 31.5997 44.8872 32.2918Z" fill="#FED8B3"/>
<path d="M37.8334 32.2921C37.77 31.6568 37.6845 30.6604 36.919 30.3515C35.9309 29.9528 34.2042 30.2389 33.131 30.2389H24.1536C23.0406 30.2389 20.7133 29.8544 19.7739 30.4308C19.2602 30.7459 18.8077 31.8613 19.5222 32.1796C20.3656 32.555 21.9425 32.2921 22.8711 32.2921H25.6498H30.566H37.8334Z" fill="#FED8B3"/>
<path d="M89.1332 32.2921C89.0697 31.6568 88.9842 30.6604 88.2188 30.3515C87.2306 29.9528 85.504 30.2389 84.4307 30.2389H75.4533C74.3403 30.2389 72.013 29.8544 71.0736 30.4308C70.56 30.7459 70.1075 31.8613 70.822 32.1796C71.6655 32.555 73.2423 32.2921 74.1708 32.2921H76.9495H81.8657H89.1332Z" fill="#FED8B3"/>
<path d="M17.5988 30.5497C17.5868 30.5599 17.5749 30.757 17.6703 30.674C17.6822 30.6637 17.6942 30.4666 17.5988 30.5497Z" fill="#805F3A"/>
<path d="M68.898 30.5497C68.8862 30.5599 68.8742 30.757 68.9697 30.674C68.9815 30.6637 68.9935 30.4666 68.898 30.5497Z" fill="#805F3A"/>
<path d="M17.3849 31.2967C17.373 31.307 17.3611 31.5041 17.4565 31.4211C17.4684 31.4108 17.4803 31.2137 17.3849 31.2967Z" fill="#614B33"/>
<path d="M39.401 31.2967C39.3891 31.307 39.3771 31.5041 39.4726 31.4211C39.4844 31.4108 39.4965 31.2137 39.401 31.2967Z" fill="#735637"/>
<path d="M43.2481 31.2967C43.2363 31.307 43.2243 31.5041 43.3198 31.4211C43.3316 31.4108 43.3436 31.2137 43.2481 31.2967Z" fill="#805F3A"/>
<path d="M68.6842 31.2967C68.6724 31.307 68.6603 31.5041 68.7558 31.4211C68.7676 31.4108 68.7797 31.2137 68.6842 31.2967Z" fill="#614B33"/>
<path d="M90.7003 31.2967C90.6885 31.307 90.6764 31.5041 90.772 31.4211C90.7838 31.4108 90.7958 31.2137 90.7003 31.2967Z" fill="#735637"/>
<path d="M14.2498 31.4209C14.1549 31.504 14.3805 31.4935 14.3923 31.4833C14.4873 31.4002 14.2617 31.4107 14.2498 31.4209Z" fill="#A37541"/>
<path d="M14.5347 31.3582C15.2108 31.6059 15.9423 31.5449 16.6721 31.5449C15.996 31.2972 15.2645 31.3582 14.5347 31.3582Z" fill="#504030"/>
<path d="M16.8148 31.4209C16.7198 31.504 16.9454 31.4935 16.9573 31.4833C17.0523 31.4002 16.8267 31.4107 16.8148 31.4209Z" fill="#D7964C"/>
<path d="M65.5497 31.4209C65.4546 31.504 65.6803 31.4935 65.6921 31.4833C65.7872 31.4002 65.5615 31.4107 65.5497 31.4209Z" fill="#A87842"/>
<path d="M67.3306 31.3584C67.5973 31.4863 67.6614 31.4982 67.9718 31.5451C67.7051 31.4172 67.6409 31.4052 67.3306 31.3584Z" fill="#705436"/>
<path d="M68.1146 31.4209C68.0195 31.504 68.2452 31.4935 68.257 31.4833C68.3521 31.4002 68.1264 31.4107 68.1146 31.4209Z" fill="#D7964C"/>
<path d="M39.6148 32.0428C39.603 32.0531 39.591 32.2502 39.6865 32.1671C39.6983 32.1569 39.7103 31.9598 39.6148 32.0428Z" fill="#695035"/>
<path d="M43.0347 32.0428C43.0229 32.0531 43.0109 32.2502 43.1064 32.1671C43.1182 32.1569 43.1302 31.9598 43.0347 32.0428Z" fill="#614B33"/>
<path d="M63.3409 32.0428C63.3291 32.0531 63.3171 32.2502 63.4126 32.1671C63.4244 32.1569 63.4364 31.9598 63.3409 32.0428Z" fill="#665E55"/>
<path d="M90.9141 32.0428C90.9023 32.0531 90.8903 32.2502 90.9858 32.1671C90.9976 32.1569 91.0096 31.9598 90.9141 32.0428Z" fill="#695035"/>
<path d="M39.8998 32.167C39.8047 32.2501 40.0304 32.2396 40.0421 32.2294C40.1373 32.1463 39.9115 32.1567 39.8998 32.167Z" fill="#AF7D43"/>
<path d="M40.1846 32.1053C40.8607 32.353 41.5923 32.2919 42.3221 32.2919C41.646 32.0442 40.9143 32.1053 40.1846 32.1053Z" fill="#544230"/>
<path d="M42.4647 32.167C42.3696 32.2501 42.5953 32.2396 42.6071 32.2294C42.7022 32.1463 42.4765 32.1567 42.4647 32.167Z" fill="#D7964C"/>
<path d="M91.1991 32.167C91.104 32.2501 91.3297 32.2396 91.3415 32.2294C91.4366 32.1463 91.2109 32.1567 91.1991 32.167Z" fill="#AF7D43"/>
<path d="M91.4844 32.1051C92.1021 32.3315 92.7399 32.2914 93.4081 32.2917C92.7904 32.0653 92.1526 32.1054 91.4844 32.1051Z" fill="#544230"/>
<path d="M93.5507 32.167C93.4556 32.2501 93.6813 32.2396 93.693 32.2294C93.7881 32.1463 93.5624 32.1567 93.5507 32.167Z" fill="#A57742"/>
<path d="M19.665 32.292C21.1309 33.7556 22.7375 33.5986 24.795 33.5986H33.5587C35.0889 33.5986 37.4346 33.8702 38.0474 32.292H19.665Z" fill="#FED8B3"/>
<path d="M44.6733 32.2921C45.2571 33.9487 47.5782 33.5987 49.1621 33.5987H56.6432C58.0042 33.5987 59.8413 33.8761 61.132 33.461C61.7661 33.257 62.3046 32.8249 62.8419 32.4788C61.3117 31.9181 58.9397 32.2921 57.2845 32.2921H44.6733Z" fill="#FED8B3"/>
<path d="M70.9644 32.292C72.4302 33.7556 74.0368 33.5986 76.0943 33.5986H84.858C86.3882 33.5986 88.7339 33.8702 89.3467 32.292H70.9644Z" fill="#FED8B3"/>
<path d="M14.4637 32.9141C14.3687 32.9971 14.5943 32.9867 14.6062 32.9764C14.7012 32.8934 14.4756 32.9038 14.4637 32.9141Z" fill="#9D948A"/>
<path d="M5.34375 47.7844H25.8636C25.4786 43.5244 24.5646 39.2699 21.4159 35.8383C18.4771 32.6357 14.1909 31.9603 10.6959 34.9218C7.77428 37.3975 6.2652 41.1721 5.65133 44.6113C5.46281 45.6676 5.56874 46.7261 5.34375 47.7844Z" fill="#FED8B3"/>
<path d="M16.2446 32.8516C16.5115 32.9794 16.5756 32.9914 16.8859 33.0382C16.619 32.9104 16.5549 32.8984 16.2446 32.8516Z" fill="#9B9288"/>
<path d="M65.7631 32.9141C65.668 32.9971 65.8937 32.9867 65.9054 32.9764C66.0006 32.8934 65.7748 32.9038 65.7631 32.9141Z" fill="#9D948A"/>
<path d="M56.6431 47.7844H77.1629C76.7779 43.5244 75.8639 39.2699 72.7152 35.8383C69.7764 32.6357 65.4903 31.9603 61.9951 34.9218C59.0736 37.3975 57.5645 41.1721 56.9506 44.6113C56.7621 45.6676 56.8681 46.7261 56.6431 47.7844Z" fill="#FED8B3"/>
<path d="M67.5444 32.8516C67.8112 32.9794 67.8753 32.9914 68.1857 33.0382C67.9189 32.9104 67.8548 32.8984 67.5444 32.8516Z" fill="#9B9288"/>
<path d="M21.5884 33.5986C22.1685 34.3645 22.9318 35.5259 23.8357 36.02C24.738 36.5133 26.5433 36.2118 27.5733 36.2118H31.4208C32.1046 36.2118 32.9222 36.3067 33.5499 36.02C34.5548 35.5612 35.6269 34.3679 36.337 33.5986H21.5884Z" fill="#FED8B3"/>
<path d="M40.1137 33.6602C40.0185 33.7432 40.2443 33.7328 40.256 33.7225C40.3511 33.6395 40.1254 33.6499 40.1137 33.6602Z" fill="#9D948A"/>
<path d="M30.9937 47.7842H51.2997C51.2997 43.6589 49.817 39.3864 46.7172 36.2121C44.391 33.8298 40.9667 32.8627 37.8336 34.6338C32.6776 37.5482 32.0036 43.0339 30.9937 47.7842Z" fill="#FED8B3"/>
<path d="M42.037 33.6602C41.9419 33.7432 42.1676 33.7328 42.1794 33.7225C42.2745 33.6395 42.0488 33.6499 42.037 33.6602Z" fill="#9B9288"/>
<path d="M46.1694 33.5986C46.8844 34.3738 47.9324 35.564 48.9514 36.02C49.5851 36.3037 50.3972 36.2118 51.0856 36.2118H54.9331C55.9632 36.2118 57.7685 36.5133 58.6707 36.02C59.5747 35.5259 60.3379 34.3645 60.9181 33.5986H46.1694Z" fill="#FED8B3"/>
<path d="M72.8882 33.5986C73.4683 34.3645 74.2316 35.5259 75.1355 36.02C76.0378 36.5133 77.8431 36.2118 78.8731 36.2118H82.7206C83.4046 36.2118 84.222 36.3067 84.8497 36.02C85.8546 35.5612 86.9267 34.3679 87.6368 33.5986H72.8882Z" fill="#FED8B3"/>
<path d="M91.413 33.6602C91.3179 33.7432 91.5436 33.7328 91.5553 33.7225C91.6505 33.6395 91.4247 33.6499 91.413 33.6602Z" fill="#9D948A"/>
<path d="M82.293 47.7842H102.599C102.599 43.6589 101.116 39.3864 98.0165 36.2121C95.6903 33.8298 92.266 32.8627 89.1329 34.6338C83.9771 37.5482 83.3027 43.0339 82.293 47.7842Z" fill="#FED8B3"/>
<path d="M93.3368 33.6602C93.2417 33.7432 93.4674 33.7328 93.4792 33.7225C93.5743 33.6395 93.3486 33.6499 93.3368 33.6602Z" fill="#9B9288"/>
<path d="M23.9399 36.2119C24.6571 37.6652 25.574 39.0053 26.198 40.505C27.1735 42.8498 27.5737 45.3042 27.5737 47.7847H29.2836C29.2869 43.4794 31.2277 39.882 33.5586 36.2119H23.9399ZM48.9485 36.2119C51.2666 39.8616 53.2202 43.502 53.2234 47.7847H54.9334C54.9334 45.1661 55.3744 42.5934 56.4433 40.1317C57.0358 38.7673 57.9105 37.5426 58.5671 36.2119H48.9485ZM75.2395 36.2119C75.9566 37.6652 76.8736 39.0053 77.4975 40.505C78.4731 42.8498 78.8732 45.3042 78.8732 47.7847H80.5832C80.5864 43.4794 82.5272 39.882 84.8582 36.2119H75.2395Z" fill="#FED8B3"/>
<path d="M4.77357 41.0028C4.76166 41.0131 4.74972 41.2102 4.84512 41.1271C4.85704 41.1168 4.86897 40.9197 4.77357 41.0028Z" fill="#7C5736"/>
<path d="M4.56019 41.7489C4.54828 41.7592 4.53634 41.9563 4.63174 41.8732C4.64366 41.8629 4.65559 41.6658 4.56019 41.7489Z" fill="#5D4531"/>
<path d="M4.34632 42.3094C4.33441 42.3197 4.32248 42.5168 4.41788 42.4338C4.42979 42.4235 4.44172 42.2264 4.34632 42.3094Z" fill="#875D38"/>
<path d="M103.525 42.496C103.514 42.5062 103.502 42.7033 103.597 42.6203C103.609 42.61 103.621 42.4129 103.525 42.496Z" fill="#6A4D33"/>
<path d="M4.13245 43.0555C4.12054 43.0658 4.10861 43.2629 4.20401 43.1798C4.21592 43.1696 4.22785 42.9725 4.13245 43.0555Z" fill="#9E6A3C"/>
<path d="M29.9962 43.0555C29.9844 43.0658 29.9723 43.2629 30.0679 43.1798C30.0797 43.1696 30.0917 42.9725 29.9962 43.0555Z" fill="#817A6E"/>
<path d="M52.4395 43.0555C52.4277 43.0658 52.4157 43.2629 52.5112 43.1798C52.523 43.1696 52.535 42.9725 52.4395 43.0555Z" fill="#8C8579"/>
<path d="M55.4322 43.0555C55.4204 43.0658 55.4084 43.2629 55.5039 43.1798C55.5157 43.1696 55.5277 42.9725 55.4322 43.0555Z" fill="#928B7F"/>
<path d="M81.2955 43.0555C81.2837 43.0658 81.2717 43.2629 81.3672 43.1798C81.379 43.1696 81.391 42.9725 81.2955 43.0555Z" fill="#817A6E"/>
<path d="M103.739 43.0555C103.727 43.0658 103.715 43.2629 103.811 43.1798C103.822 43.1696 103.834 42.9725 103.739 43.0555Z" fill="#95643A"/>
<path d="M27.0035 43.2421C26.9917 43.2523 26.9797 43.4494 27.0752 43.3664C27.087 43.3561 27.099 43.159 27.0035 43.2421Z" fill="#7C756A"/>
<path d="M78.3028 43.2421C78.291 43.2523 78.279 43.4494 78.3745 43.3664C78.3863 43.3561 78.3983 43.159 78.3028 43.2421Z" fill="#7C756A"/>
<path d="M5.84242 43.4296C5.8305 43.4398 5.81857 43.6369 5.91397 43.5539C5.92588 43.5436 5.93782 43.3465 5.84242 43.4296Z" fill="#C3B9AE"/>
<path d="M25.2935 43.4296C25.2817 43.4398 25.2697 43.6369 25.3652 43.5539C25.377 43.5436 25.389 43.3465 25.2935 43.4296Z" fill="#B6ADA1"/>
<path d="M57.1422 43.4296C57.1304 43.4398 57.1183 43.6369 57.2138 43.5539C57.2256 43.5436 57.2377 43.3465 57.1422 43.4296Z" fill="#C3B9AE"/>
<path d="M76.5928 43.4296C76.581 43.4398 76.569 43.6369 76.6645 43.5539C76.6763 43.5436 76.6884 43.3465 76.5928 43.4296Z" fill="#B6ADA1"/>
<path d="M29.7823 43.8026C29.7705 43.8129 29.7585 44.01 29.8537 43.9269C29.8654 43.9166 29.8774 43.7195 29.7823 43.8026ZM81.0818 43.8026C81.0701 43.8129 81.0581 44.01 81.1532 43.9269C81.165 43.9166 81.177 43.7195 81.0818 43.8026Z" fill="#8E877B"/>
<path d="M3.91859 43.9891C3.90668 43.9994 3.89474 44.1965 3.99014 44.1134C4.00205 44.1032 4.01399 43.9061 3.91859 43.9891Z" fill="#AD723E"/>
<path d="M27.2174 43.9891C27.2056 43.9994 27.1935 44.1965 27.289 44.1134C27.3008 44.1032 27.3129 43.9061 27.2174 43.9891Z" fill="#A9A294"/>
<path d="M31.4209 43.8643V44.4242C31.5697 44.1342 31.5697 44.1543 31.4209 43.8643Z" fill="#948B81"/>
<path d="M50.8721 43.8643V44.4242C51.0208 44.1342 51.0208 44.1543 50.8721 43.8643Z" fill="#877E74"/>
<path d="M52.6534 43.9891C52.6416 43.9994 52.6296 44.1965 52.7251 44.1134C52.7369 44.1032 52.7489 43.9061 52.6534 43.9891Z" fill="#777064"/>
<path d="M55.2183 43.9891C55.2065 43.9994 55.1945 44.1965 55.29 44.1134C55.3018 44.1032 55.3138 43.9061 55.2183 43.9891Z" fill="#9C9588"/>
<path d="M78.5167 43.9891C78.5049 43.9994 78.4928 44.1965 78.5884 44.1134C78.6002 44.1032 78.6122 43.9061 78.5167 43.9891Z" fill="#A9A294"/>
<path d="M82.7207 43.8643V44.4242C82.8695 44.1342 82.8695 44.1543 82.7207 43.8643Z" fill="#948B81"/>
<path d="M102.172 43.8643V44.4242C102.321 44.1342 102.321 44.1543 102.172 43.8643Z" fill="#877E74"/>
<path d="M103.953 43.9891C103.941 43.9994 103.929 44.1965 104.024 44.1134C104.036 44.1032 104.048 43.9061 103.953 43.9891Z" fill="#815A36"/>
<path d="M5.55762 44.0518V44.6117C5.70641 44.3217 5.70641 44.3418 5.55762 44.0518Z" fill="#898177"/>
<path d="M25.436 44.0518V44.6117C25.5848 44.3217 25.5848 44.3418 25.436 44.0518Z" fill="#7C736A"/>
<path d="M56.8569 44.0518V44.6117C57.0057 44.3217 57.0057 44.3418 56.8569 44.0518Z" fill="#898177"/>
<path d="M76.7354 44.0518V44.6117C76.8841 44.3217 76.8841 44.3418 76.7354 44.0518Z" fill="#7C736A"/>
<path d="M3.91859 44.3622C3.90668 44.3724 3.89474 44.5695 3.99014 44.4865C4.00205 44.4762 4.01399 44.2791 3.91859 44.3622Z" fill="#6D4F34"/>
<path d="M27.146 44.2383V44.7983C27.2948 44.5082 27.2948 44.5283 27.146 44.2383Z" fill="#787165"/>
<path d="M55.2183 44.3622C55.2065 44.3724 55.1945 44.5695 55.29 44.4865C55.3018 44.4762 55.3138 44.2791 55.2183 44.3622Z" fill="#6C645A"/>
<path d="M78.4458 44.2383V44.7983C78.5946 44.5082 78.5946 44.5283 78.4458 44.2383Z" fill="#787165"/>
<path d="M25.5074 44.7362C25.4956 44.7465 25.4836 44.9436 25.5791 44.8605C25.5909 44.8502 25.6029 44.6531 25.5074 44.7362Z" fill="#DCD3C6"/>
<path d="M29.5684 44.7362C29.5566 44.7465 29.5446 44.9436 29.6401 44.8605C29.6519 44.8502 29.6639 44.6531 29.5684 44.7362Z" fill="#9F998B"/>
<path d="M76.8067 44.7362C76.7949 44.7465 76.7829 44.9436 76.8784 44.8605C76.8902 44.8502 76.9022 44.6531 76.8067 44.7362Z" fill="#DCD3C6"/>
<path d="M80.8682 44.7362C80.8564 44.7465 80.8444 44.9436 80.9399 44.8605C80.9517 44.8502 80.9637 44.6531 80.8682 44.7362Z" fill="#9F998B"/>
<path d="M31.2784 44.9227C31.2666 44.933 31.2546 45.1301 31.3501 45.047C31.3619 45.0368 31.3739 44.8397 31.2784 44.9227Z" fill="#928A80"/>
<path d="M51.1568 44.9227C51.145 44.933 51.133 45.1301 51.2285 45.047C51.2403 45.0368 51.2523 44.8397 51.1568 44.9227Z" fill="#867D74"/>
<path d="M52.8668 44.9227C52.855 44.933 52.843 45.1301 52.9385 45.047C52.9503 45.0368 52.9623 44.8397 52.8668 44.9227Z" fill="#8E877B"/>
<path d="M82.5782 44.9227C82.5664 44.933 82.5544 45.1301 82.6499 45.047C82.6617 45.0368 82.6737 44.8397 82.5782 44.9227Z" fill="#928A80"/>
<path d="M102.457 44.9227C102.445 44.933 102.433 45.1301 102.528 45.047C102.54 45.0368 102.552 44.8397 102.457 44.9227Z" fill="#867D74"/>
<path d="M104.095 44.7979V45.3578C104.244 45.0678 104.244 45.0879 104.095 44.7979Z" fill="#98673A"/>
<path d="M3.70521 45.1092C3.69328 45.1195 3.68139 45.3166 3.77677 45.2336C3.78868 45.2233 3.80061 45.0262 3.70521 45.1092Z" fill="#CE8543"/>
<path d="M29.5684 45.1092C29.5566 45.1195 29.5447 45.3166 29.6398 45.2336C29.6516 45.2233 29.6635 45.0262 29.5684 45.1092ZM80.868 45.1092C80.8562 45.1195 80.8442 45.3166 80.9394 45.2336C80.9511 45.2233 80.9631 45.0262 80.868 45.1092Z" fill="#675F55"/>
<path d="M5.34375 45.1709V45.7309C5.49254 45.4408 5.49254 45.461 5.34375 45.1709Z" fill="#6B635A"/>
<path d="M27.4307 45.2958C27.4189 45.306 27.4069 45.5031 27.5024 45.4201C27.5142 45.4098 27.5262 45.2127 27.4307 45.2958Z" fill="#B3AD9E"/>
<path d="M31.2784 45.2958C31.2666 45.306 31.2546 45.5031 31.3501 45.4201C31.3619 45.4098 31.3739 45.2127 31.2784 45.2958Z" fill="#C7BDB1"/>
<path d="M51.0859 45.1709V45.7309C51.2347 45.4408 51.2347 45.461 51.0859 45.1709Z" fill="#B8AFA4"/>
<path d="M52.8668 45.2958C52.855 45.306 52.843 45.5031 52.9385 45.4201C52.9503 45.4098 52.9623 45.2127 52.8668 45.2958Z" fill="#5C554B"/>
<path d="M54.9331 45.1709V45.7309C55.0819 45.4408 55.0819 45.461 54.9331 45.1709Z" fill="#A7A192"/>
<path d="M56.6431 45.1709V45.7309C56.7918 45.4408 56.7918 45.461 56.6431 45.1709Z" fill="#6B635A"/>
<path d="M78.7305 45.2958C78.7187 45.306 78.7067 45.5031 78.8022 45.4201C78.814 45.4098 78.8261 45.2127 78.7305 45.2958Z" fill="#B3AD9E"/>
<path d="M82.5782 45.2958C82.5664 45.306 82.5544 45.5031 82.6499 45.4201C82.6617 45.4098 82.6737 45.2127 82.5782 45.2958Z" fill="#C7BDB1"/>
<path d="M102.385 45.1709V45.7309C102.534 45.4408 102.534 45.461 102.385 45.1709Z" fill="#B8AFA4"/>
<path d="M3.63379 45.3574V46.1041C3.78559 45.7755 3.78559 45.6859 3.63379 45.3574Z" fill="#825A37"/>
<path d="M25.7207 45.4823C25.709 45.4926 25.697 45.6897 25.7921 45.6066C25.8039 45.5963 25.8159 45.3992 25.7207 45.4823ZM77.0203 45.4823C77.0086 45.4926 76.9966 45.6897 77.0917 45.6066C77.1035 45.5963 77.1154 45.3992 77.0203 45.4823Z" fill="#726A61"/>
<path d="M27.4307 45.6688C27.4189 45.6791 27.407 45.8762 27.5021 45.7931C27.5139 45.7829 27.5258 45.5857 27.4307 45.6688ZM78.7303 45.6688C78.7185 45.6791 78.7065 45.8762 78.8017 45.7931C78.8134 45.7829 78.8254 45.5857 78.7303 45.6688Z" fill="#968F83"/>
<path d="M5.41516 45.8553C5.40325 45.8656 5.39134 46.0627 5.48672 45.9796C5.49863 45.9694 5.51056 45.7723 5.41516 45.8553Z" fill="#A59C91"/>
<path d="M25.7208 45.8553C25.709 45.8656 25.697 46.0627 25.7925 45.9796C25.8043 45.9694 25.8163 45.7723 25.7208 45.8553Z" fill="#999085"/>
<path d="M55.0045 45.8553C54.9927 45.8656 54.9806 46.0627 55.0761 45.9796C55.088 45.9694 55.1 45.7723 55.0045 45.8553Z" fill="#7B7569"/>
<path d="M56.7144 45.8553C56.7026 45.8656 56.6906 46.0627 56.7861 45.9796C56.7979 45.9694 56.8099 45.7723 56.7144 45.8553Z" fill="#A59C91"/>
<path d="M77.0206 45.8553C77.0088 45.8656 76.9968 46.0627 77.0923 45.9796C77.1041 45.9694 77.1161 45.7723 77.0206 45.8553Z" fill="#999085"/>
<path d="M27.4307 46.0428C27.4189 46.0531 27.4069 46.2502 27.5024 46.1671C27.5142 46.1569 27.5262 45.9598 27.4307 46.0428Z" fill="#797167"/>
<path d="M29.3546 46.0428C29.3428 46.0531 29.3307 46.2502 29.4263 46.1671C29.4381 46.1569 29.4501 45.9598 29.3546 46.0428Z" fill="#AAA395"/>
<path d="M31.0645 46.0428C31.0527 46.0531 31.0407 46.2502 31.1362 46.1671C31.148 46.1569 31.16 45.9598 31.0645 46.0428Z" fill="#70675F"/>
<path d="M53.0806 46.0428C53.0688 46.0531 53.0568 46.2502 53.1523 46.1671C53.1641 46.1569 53.1761 45.9598 53.0806 46.0428Z" fill="#B5AFA0"/>
<path d="M78.7305 46.0428C78.7187 46.0531 78.7067 46.2502 78.8022 46.1671C78.814 46.1569 78.8261 45.9598 78.7305 46.0428Z" fill="#797167"/>
<path d="M80.6544 46.0428C80.6426 46.0531 80.6305 46.2502 80.7261 46.1671C80.7379 46.1569 80.7499 45.9598 80.6544 46.0428Z" fill="#AAA395"/>
<path d="M82.3643 46.0428C82.3525 46.0531 82.3405 46.2502 82.436 46.1671C82.4478 46.1569 82.4598 45.9598 82.3643 46.0428Z" fill="#70675F"/>
<path d="M104.309 45.918V46.4779C104.458 46.1879 104.458 46.208 104.309 45.918Z" fill="#C47F42"/>
<path d="M5.34375 46.1045V47.4111C5.57022 46.9381 5.57022 46.5775 5.34375 46.1045Z" fill="#D7CCC0"/>
<path d="M25.6499 46.1045V47.0378C25.8273 46.6589 25.8273 46.4834 25.6499 46.1045Z" fill="#CBC1B6"/>
<path d="M51.3707 46.2294C51.3589 46.2396 51.3469 46.4367 51.4424 46.3537C51.4542 46.3434 51.4662 46.1463 51.3707 46.2294Z" fill="#7C7369"/>
<path d="M54.9331 46.1045V47.4111C55.1595 46.9381 55.1595 46.5775 54.9331 46.1045Z" fill="#4F493F"/>
<path d="M56.6431 46.1045V47.4111C56.8694 46.9381 56.8694 46.5775 56.6431 46.1045Z" fill="#D7CCC0"/>
<path d="M76.9492 46.1045V47.0378C77.1266 46.6589 77.1266 46.4834 76.9492 46.1045Z" fill="#CBC1B6"/>
<path d="M102.67 46.2294C102.659 46.2396 102.647 46.4367 102.742 46.3537C102.754 46.3434 102.766 46.1463 102.67 46.2294Z" fill="#7C7369"/>
<path d="M27.3599 46.291V47.7843C27.608 47.2672 27.608 46.8081 27.3599 46.291Z" fill="#514941"/>
<path d="M29.2837 46.291V46.851C29.4325 46.5609 29.4325 46.5811 29.2837 46.291Z" fill="#857F73"/>
<path d="M30.9937 46.291V46.851C31.1424 46.5609 31.1424 46.5811 30.9937 46.291Z" fill="#988F84"/>
<path d="M53.0098 46.291V46.851C53.1585 46.5609 53.1585 46.5811 53.0098 46.291Z" fill="#908A7C"/>
<path d="M78.6592 46.291V47.7843C78.9073 47.2672 78.9073 46.8081 78.6592 46.291Z" fill="#514941"/>
<path d="M80.583 46.291V46.851C80.7318 46.5609 80.7318 46.5811 80.583 46.291Z" fill="#857F73"/>
<path d="M82.293 46.291V46.851C82.4417 46.5609 82.4417 46.5811 82.293 46.291Z" fill="#988F84"/>
<path d="M51.2998 46.4775V47.0375C51.4486 46.7474 51.4486 46.7676 51.2998 46.4775ZM102.599 46.4775V47.0375C102.748 46.7474 102.748 46.7676 102.599 46.4775Z" fill="#999085"/>
<path d="M104.309 46.4775V47.4108C104.486 47.0319 104.486 46.8565 104.309 46.4775Z" fill="#745335"/>
<path d="M29.2837 46.8516V47.4115C29.4325 47.1215 29.4325 47.1416 29.2837 46.8516Z" fill="#655D54"/>
<path d="M30.9937 46.8516V47.4115C31.1424 47.1215 31.1424 47.1416 30.9937 46.8516Z" fill="#C0B6AA"/>
<path d="M53.0098 46.8516V47.4115C53.1585 47.1215 53.1585 47.1416 53.0098 46.8516Z" fill="#70695E"/>
<path d="M80.583 46.8516V47.4115C80.7318 47.1215 80.7318 47.1416 80.583 46.8516Z" fill="#655D54"/>
<path d="M82.293 46.8516V47.4115C82.4417 47.1215 82.4417 47.1416 82.293 46.8516ZM51.3706 47.1627C51.3589 47.173 51.3469 47.3701 51.442 47.287C51.4538 47.2768 51.4658 47.0797 51.3706 47.1627ZM102.67 47.1627C102.658 47.173 102.646 47.3701 102.742 47.287C102.753 47.2768 102.765 47.0797 102.67 47.1627Z" fill="#C0B6AA"/>
<path d="M51.3706 47.536C51.3589 47.5463 51.3469 47.7434 51.442 47.6603C51.4538 47.65 51.4658 47.4529 51.3706 47.536ZM102.67 47.536C102.658 47.5463 102.646 47.7434 102.742 47.6603C102.753 47.65 102.765 47.4529 102.67 47.536Z" fill="#D9D0C4"/>
<path d="M5.34375 47.7847C7.02787 48.4018 9.71834 47.9714 11.5424 47.9714H25.8636C24.1795 47.3543 21.489 47.7847 19.6649 47.7847H5.34375ZM30.9935 47.7847C32.6777 48.4018 35.3681 47.9714 37.1922 47.9714H51.5134C49.8292 47.3543 47.1388 47.7847 45.3147 47.7847H30.9935ZM56.6433 47.7847C58.3274 48.4018 61.0179 47.9714 62.842 47.9714H77.1631C75.479 47.3543 72.7886 47.7847 70.9644 47.7847H56.6433ZM82.2931 47.7847C83.9772 48.4018 86.6677 47.9714 88.4918 47.9714H102.813C101.129 47.3543 98.4383 47.7847 96.6142 47.7847H82.2931Z" fill="#463F37"/>
<path d="M1.92383 49.2781C2.82482 49.6083 3.94685 49.4648 4.9163 49.4648H11.115H32.2761H106.233C105.332 49.1346 104.21 49.2781 103.24 49.2781H97.0418H75.8807H1.92383Z" fill="#F2A751"/>
<path d="M1.92368 49.4648C1.92368 50.1893 1.61584 51.6047 2.41912 52.0728C2.87278 52.3371 3.545 52.2638 4.06116 52.2647H7.69488H21.161H84.2168H99.8204H103.882C104.457 52.2638 105.211 52.3461 105.713 52.0446C106.521 51.5591 106.233 50.2016 106.233 49.4648H1.92368Z" fill="#FFB054"/>
<path d="M2.77881 52.2644C3.67978 52.5946 4.80183 52.4511 5.77128 52.4511H11.7562H32.7036H105.378C104.477 52.1209 103.355 52.2644 102.385 52.2644H96.4005H75.4532H2.77881Z" fill="#473B2E"/>
<path d="M3.84766 54.1307C5.30476 53.8278 6.84654 53.9441 8.33637 53.9441H15.8176H22.8712C24.3611 53.9441 25.9028 53.8278 27.36 54.1307C26.509 53.2803 23.4768 53.7574 22.23 53.7574H8.55012C7.36867 53.7574 4.65911 53.3199 3.84766 54.1307ZM29.4974 54.1307C30.9546 53.8278 32.4963 53.9441 33.9861 53.9441H41.4673H48.521C50.0108 53.9441 51.5526 53.8278 53.0097 54.1307C52.1983 53.3199 49.4887 53.7574 48.3073 53.7574H34.6274C33.3806 53.7574 30.3484 53.2803 29.4974 54.1307ZM55.1472 54.1307C56.6043 53.8278 58.1461 53.9441 59.6359 53.9441H67.1171H74.1708C75.6606 53.9441 77.2024 53.8278 78.6595 54.1307C77.8481 53.3199 75.1384 53.7574 73.957 53.7574H60.2772C59.0304 53.7574 55.9981 53.2803 55.1472 54.1307ZM80.797 54.1307C82.2541 53.8278 83.7959 53.9441 85.2857 53.9441H92.7669H99.8206C101.31 53.9441 102.852 53.8278 104.309 54.1307C103.498 53.3199 100.788 53.7574 99.6068 53.7574H85.9269C84.6802 53.7574 81.6479 53.2803 80.797 54.1307Z" fill="#EE9649"/>
<path d="M4.06104 53.9443C4.13944 57.2611 5.45403 60.7728 6.19852 64.0239C6.46438 65.1849 6.49011 67.0791 7.29712 68.0521C7.74007 68.5863 8.58065 68.5864 9.14315 68.9819C9.5895 69.2958 9.7813 69.8582 10.3183 70.071C11.3156 70.466 13.027 70.1836 14.1072 70.1836H18.8097C19.4431 70.1836 20.2964 70.3055 20.8886 70.071C21.4881 69.8334 21.6901 69.1797 22.2527 68.8742C22.7463 68.6059 23.3693 68.5832 23.784 68.1951C24.6576 67.3777 24.68 65.4578 24.9229 64.3972C25.6947 61.028 27.0646 57.3813 27.1458 53.9443H4.06104ZM29.7108 53.9443C29.7893 57.2611 31.1038 60.7728 31.8483 64.0239C32.1142 65.1849 32.1398 67.0791 32.947 68.0521C33.3898 68.5863 34.2305 68.5864 34.7929 68.9819C35.2392 69.2958 35.4311 69.8582 35.9681 70.071C36.9654 70.466 38.6767 70.1836 39.757 70.1836H44.4594C45.0928 70.1836 45.9463 70.3055 46.5383 70.071C47.1379 69.8334 47.3399 69.1797 47.9025 68.8742C48.396 68.6059 49.0191 68.5832 49.4338 68.1951C50.3074 67.3777 50.3298 65.4578 50.5726 64.3972C51.3445 61.028 52.7144 57.3813 52.7956 53.9443H29.7108ZM55.3606 53.9443C55.439 57.2611 56.7536 60.7728 57.4981 64.0239C57.764 65.1849 57.7896 67.0791 58.5967 68.0521C59.0396 68.5863 59.8803 68.5864 60.4427 68.9819C60.889 69.2958 61.0809 69.8582 61.6178 70.071C62.6152 70.466 64.3267 70.1836 65.4067 70.1836H70.1092C70.7425 70.1836 71.596 70.3055 72.1881 70.071C72.7877 69.8334 72.9897 69.1797 73.5523 68.8742C74.0458 68.6059 74.6689 68.5832 75.0836 68.1951C75.9571 67.3777 75.9796 65.4578 76.2224 64.3972C76.9942 61.028 78.3642 57.3813 78.4454 53.9443H55.3606ZM81.0104 53.9443C81.0888 57.2611 82.4034 60.7728 83.1478 64.0239C83.4137 65.1849 83.4394 67.0791 84.2465 68.0521C84.6894 68.5863 85.5301 68.5864 86.0924 68.9819C86.5387 69.2958 86.7307 69.8582 87.2676 70.071C88.265 70.466 89.9765 70.1836 91.0565 70.1836H95.759C96.3923 70.1836 97.2458 70.3055 97.8379 70.071C98.4375 69.8334 98.6395 69.1797 99.202 68.8742C99.6956 68.6059 100.319 68.5832 100.733 68.1951C101.607 67.3777 101.629 65.4578 101.872 64.3972C102.644 61.028 104.014 57.3813 104.095 53.9443H81.0104Z" fill="#FB9E4B"/>
<path d="M3.91859 54.2557C3.90668 54.266 3.89474 54.4631 3.99014 54.38C4.00205 54.3698 4.01399 54.1727 3.91859 54.2557Z" fill="#926339"/>
<path d="M27.2174 54.2557C27.2056 54.266 27.1935 54.4631 27.289 54.38C27.3008 54.3698 27.3129 54.1727 27.2174 54.2557Z" fill="#885E38"/>
<path d="M29.5684 54.2557C29.5566 54.266 29.5446 54.4631 29.6401 54.38C29.6519 54.3698 29.6639 54.1727 29.5684 54.2557Z" fill="#926339"/>
<path d="M52.8668 54.2557C52.855 54.266 52.843 54.4631 52.9385 54.38C52.9503 54.3698 52.9623 54.1727 52.8668 54.2557Z" fill="#885E38"/>
<path d="M55.2183 54.2557C55.2065 54.266 55.1945 54.4631 55.29 54.38C55.3018 54.3698 55.3138 54.1727 55.2183 54.2557Z" fill="#926339"/>
<path d="M78.5167 54.2557C78.5049 54.266 78.4928 54.4631 78.5884 54.38C78.6002 54.3698 78.6122 54.1727 78.5167 54.2557Z" fill="#885E38"/>
<path d="M80.8682 54.2557C80.8564 54.266 80.8444 54.4631 80.9399 54.38C80.9517 54.3698 80.9637 54.1727 80.8682 54.2557Z" fill="#926339"/>
<path d="M104.167 54.2557C104.155 54.266 104.143 54.4631 104.238 54.38C104.25 54.3698 104.262 54.1727 104.167 54.2557Z" fill="#885E38"/>
<path d="M4.13245 55.1883C4.12054 55.1986 4.10861 55.3957 4.20401 55.3127C4.21592 55.3024 4.22785 55.1053 4.13245 55.1883Z" fill="#926339"/>
<path d="M27.0035 55.1883C26.9917 55.1986 26.9797 55.3957 27.0752 55.3127C27.087 55.3024 27.099 55.1053 27.0035 55.1883Z" fill="#885E38"/>
<path d="M29.7823 55.1883C29.7705 55.1986 29.7585 55.3957 29.854 55.3127C29.8658 55.3024 29.8778 55.1053 29.7823 55.1883Z" fill="#926339"/>
<path d="M52.6534 55.1883C52.6416 55.1986 52.6296 55.3957 52.7251 55.3127C52.7369 55.3024 52.7489 55.1053 52.6534 55.1883Z" fill="#885E38"/>
<path d="M55.4322 55.1883C55.4204 55.1986 55.4084 55.3957 55.5039 55.3127C55.5157 55.3024 55.5277 55.1053 55.4322 55.1883Z" fill="#926339"/>
<path d="M78.3028 55.1883C78.291 55.1986 78.279 55.3957 78.3745 55.3127C78.3863 55.3024 78.3983 55.1053 78.3028 55.1883Z" fill="#885E38"/>
<path d="M81.0816 55.1883C81.0698 55.1986 81.0578 55.3957 81.1533 55.3127C81.1651 55.3024 81.1771 55.1053 81.0816 55.1883Z" fill="#926339"/>
<path d="M103.953 55.1883C103.941 55.1986 103.929 55.3957 104.024 55.3127C104.036 55.3024 104.048 55.1053 103.953 55.1883Z" fill="#885E38"/>
<path d="M4.34632 56.1219C4.33441 56.1322 4.32248 56.3293 4.41788 56.2463C4.42979 56.236 4.44172 56.0389 4.34632 56.1219Z" fill="#926339"/>
<path d="M26.7896 56.1219C26.7778 56.1322 26.7658 56.3293 26.8613 56.2463C26.8731 56.236 26.8851 56.0389 26.7896 56.1219Z" fill="#885E38"/>
<path d="M29.9962 56.1219C29.9844 56.1322 29.9723 56.3293 30.0679 56.2463C30.0797 56.236 30.0917 56.0389 29.9962 56.1219Z" fill="#926339"/>
<path d="M52.4395 56.1219C52.4277 56.1322 52.4157 56.3293 52.5112 56.2463C52.523 56.236 52.535 56.0389 52.4395 56.1219Z" fill="#885E38"/>
<path d="M55.6456 56.1219C55.6338 56.1322 55.6218 56.3293 55.7173 56.2463C55.7291 56.236 55.7411 56.0389 55.6456 56.1219Z" fill="#926339"/>
<path d="M78.0894 56.1219C78.0776 56.1322 78.0656 56.3293 78.1611 56.2463C78.1729 56.236 78.1849 56.0389 78.0894 56.1219Z" fill="#885E38"/>
<path d="M81.2955 56.1219C81.2837 56.1322 81.2717 56.3293 81.3672 56.2463C81.379 56.236 81.391 56.0389 81.2955 56.1219Z" fill="#926339"/>
<path d="M103.739 56.1219C103.727 56.1322 103.715 56.3293 103.811 56.2463C103.822 56.236 103.834 56.0389 103.739 56.1219Z" fill="#885E38"/>
<path d="M4.56019 57.0555C4.54828 57.0658 4.53634 57.2629 4.63174 57.1798C4.64366 57.1696 4.65559 56.9725 4.56019 57.0555Z" fill="#926339"/>
<path d="M26.5758 57.0555C26.564 57.0658 26.5519 57.2629 26.6474 57.1798C26.6592 57.1696 26.6713 56.9725 26.5758 57.0555Z" fill="#885E38"/>
<path d="M30.2095 57.0555C30.1977 57.0658 30.1857 57.2629 30.2812 57.1798C30.293 57.1696 30.3051 56.9725 30.2095 57.0555Z" fill="#926339"/>
<path d="M52.2257 57.0555C52.2139 57.0658 52.2018 57.2629 52.2973 57.1798C52.3092 57.1696 52.3212 56.9725 52.2257 57.0555Z" fill="#885E38"/>
<path d="M55.8594 57.0555C55.8476 57.0658 55.8356 57.2629 55.9311 57.1798C55.9429 57.1696 55.955 56.9725 55.8594 57.0555Z" fill="#926339"/>
<path d="M77.8756 57.0555C77.8638 57.0658 77.8517 57.2629 77.9472 57.1798C77.959 57.1696 77.9711 56.9725 77.8756 57.0555Z" fill="#885E38"/>
<path d="M81.5094 57.0555C81.4975 57.0658 81.4855 57.2629 81.581 57.1798C81.5928 57.1696 81.6049 56.9725 81.5094 57.0555Z" fill="#926339"/>
<path d="M103.525 57.0555C103.514 57.0658 103.502 57.2629 103.597 57.1798C103.609 57.1696 103.621 56.9725 103.525 57.0555Z" fill="#885E38"/>
<path d="M28.3573 57.1797C28.2622 57.2628 28.4879 57.2523 28.4997 57.2421C28.5948 57.159 28.3691 57.1694 28.3573 57.1797ZM54.0071 57.1797C53.912 57.2628 54.1377 57.2523 54.1495 57.2421C54.2446 57.159 54.0188 57.1694 54.0071 57.1797ZM79.6569 57.1797C79.5618 57.2628 79.7875 57.2523 79.7992 57.2421C79.8943 57.159 79.6686 57.1694 79.6569 57.1797Z" fill="#815032"/>
<path d="M28.3573 57.3662C28.2622 57.4493 28.4879 57.4388 28.4997 57.4286C28.5948 57.3455 28.3691 57.356 28.3573 57.3662ZM54.0071 57.3662C53.912 57.4493 54.1377 57.4388 54.1495 57.4286C54.2446 57.3455 54.0188 57.356 54.0071 57.3662ZM79.6569 57.3662C79.5618 57.4493 79.7875 57.4388 79.7992 57.4286C79.8943 57.3455 79.6686 57.356 79.6569 57.3662Z" fill="#A75F36"/>
<path d="M28.3573 57.5528C28.2622 57.6358 28.4879 57.6254 28.4997 57.6151C28.5948 57.532 28.3691 57.5425 28.3573 57.5528ZM54.0071 57.5528C53.912 57.6358 54.1377 57.6254 54.1495 57.6151C54.2446 57.532 54.0188 57.5425 54.0071 57.5528ZM79.6569 57.5528C79.5618 57.6358 79.7875 57.6254 79.7992 57.6151C79.8943 57.532 79.6686 57.5425 79.6569 57.5528Z" fill="#CC6E3A"/>
<path d="M28.2147 57.6777C27.7785 60.6279 26.7273 63.5005 26.291 66.4507H30.566C30.1297 63.5005 29.0785 60.6279 28.6422 57.6777H28.2147ZM53.8645 57.6777C53.4283 60.6279 52.3771 63.5005 51.9408 66.4507H56.2158C55.7795 63.5005 54.7283 60.6279 54.292 57.6777H53.8645ZM79.5143 57.6777C79.078 60.6279 78.0268 63.5005 77.5906 66.4507H81.8655C81.4293 63.5005 80.3781 60.6279 79.9418 57.6777H79.5143Z" fill="#F37E3E"/>
<path d="M4.77357 57.9881C4.76166 57.9984 4.74972 58.1955 4.84512 58.1125C4.85704 58.1022 4.86897 57.9051 4.77357 57.9881Z" fill="#926339"/>
<path d="M26.3624 57.9881C26.3506 57.9984 26.3386 58.1955 26.4341 58.1125C26.4459 58.1022 26.4579 57.9051 26.3624 57.9881Z" fill="#885E38"/>
<path d="M28.001 57.8643V58.4242C28.1497 58.1342 28.1497 58.1543 28.001 57.8643Z" fill="#8C5333"/>
<path d="M30.4234 57.9881C30.4116 57.9984 30.3996 58.1955 30.4951 58.1125C30.5069 58.1022 30.5189 57.9051 30.4234 57.9881Z" fill="#926339"/>
<path d="M52.0118 57.9881C52 57.9984 51.988 58.1955 52.0835 58.1125C52.0953 58.1022 52.1073 57.9051 52.0118 57.9881Z" fill="#885E38"/>
<path d="M53.6509 57.8643V58.4242C53.7996 58.1342 53.7996 58.1543 53.6509 57.8643Z" fill="#8C5333"/>
<path d="M56.0733 57.9881C56.0615 57.9984 56.0495 58.1955 56.145 58.1125C56.1568 58.1022 56.1688 57.9051 56.0733 57.9881Z" fill="#926339"/>
<path d="M77.6617 57.9881C77.6499 57.9984 77.6379 58.1955 77.7334 58.1125C77.7452 58.1022 77.7572 57.9051 77.6617 57.9881Z" fill="#885E38"/>
<path d="M79.3008 57.8643V58.4242C79.4495 58.1342 79.4495 58.1543 79.3008 57.8643Z" fill="#8C5333"/>
<path d="M81.7232 57.9881C81.7114 57.9984 81.6994 58.1955 81.7949 58.1125C81.8067 58.1022 81.8187 57.9051 81.7232 57.9881Z" fill="#926339"/>
<path d="M103.312 57.9881C103.3 57.9984 103.288 58.1955 103.383 58.1125C103.395 58.1022 103.407 57.9051 103.312 57.9881Z" fill="#885E38"/>
<path d="M28.7134 58.1747C28.7017 58.1849 28.6897 58.382 28.7848 58.299C28.7966 58.2887 28.8085 58.0916 28.7134 58.1747ZM54.3632 58.1747C54.3514 58.1849 54.3395 58.382 54.4346 58.299C54.4463 58.2887 54.4583 58.0916 54.3632 58.1747ZM80.013 58.1747C80.0012 58.1849 79.9893 58.382 80.0844 58.299C80.0961 58.2887 80.1081 58.0916 80.013 58.1747Z" fill="#A85F37"/>
<path d="M4.98743 58.9217C4.97552 58.932 4.96359 59.1291 5.05899 59.0461C5.0709 59.0358 5.08284 58.8387 4.98743 58.9217Z" fill="#926339"/>
<path d="M26.1485 58.9217C26.1367 58.932 26.1247 59.1291 26.2202 59.0461C26.232 59.0358 26.244 58.8387 26.1485 58.9217Z" fill="#885E38"/>
<path d="M27.7871 58.7969V59.3568C27.9359 59.0668 27.9359 59.0869 27.7871 58.7969Z" fill="#8C5433"/>
<path d="M30.6373 58.9217C30.6255 58.932 30.6135 59.1291 30.709 59.0461C30.7208 59.0358 30.7328 58.8387 30.6373 58.9217Z" fill="#926339"/>
<path d="M51.7984 58.9217C51.7866 58.932 51.7746 59.1291 51.8701 59.0461C51.8819 59.0358 51.8939 58.8387 51.7984 58.9217Z" fill="#885E38"/>
<path d="M53.437 58.7969V59.3568C53.5858 59.0668 53.5858 59.0869 53.437 58.7969Z" fill="#8C5433"/>
<path d="M56.2872 58.9217C56.2754 58.932 56.2634 59.1291 56.3589 59.0461C56.3707 59.0358 56.3827 58.8387 56.2872 58.9217Z" fill="#926339"/>
<path d="M77.4478 58.9217C77.436 58.932 77.424 59.1291 77.5195 59.0461C77.5313 59.0358 77.5433 58.8387 77.4478 58.9217Z" fill="#885E38"/>
<path d="M79.0869 58.7969V59.3568C79.2357 59.0668 79.2357 59.0869 79.0869 58.7969Z" fill="#8C5433"/>
<path d="M81.9366 58.9217C81.9248 58.932 81.9128 59.1291 82.0083 59.0461C82.0201 59.0358 82.0321 58.8387 81.9366 58.9217Z" fill="#926339"/>
<path d="M103.098 58.9217C103.086 58.932 103.074 59.1291 103.169 59.0461C103.181 59.0358 103.193 58.8387 103.098 58.9217Z" fill="#885E38"/>
<path d="M28.9273 59.1083C28.9155 59.1185 28.9036 59.3156 28.9987 59.2326C29.0104 59.2223 29.0224 59.0252 28.9273 59.1083ZM54.5771 59.1083C54.5653 59.1185 54.5533 59.3156 54.6485 59.2326C54.6602 59.2223 54.6722 59.0252 54.5771 59.1083ZM80.2269 59.1083C80.2151 59.1185 80.2031 59.3156 80.2982 59.2326C80.31 59.2223 80.322 59.0252 80.2269 59.1083Z" fill="#A85F37"/>
<path d="M5.20131 59.8553C5.18938 59.8656 5.17747 60.0627 5.27287 59.9796C5.28478 59.9694 5.29671 59.7723 5.20131 59.8553Z" fill="#926339"/>
<path d="M25.9346 59.8553C25.9228 59.8656 25.9108 60.0627 26.0063 59.9796C26.0181 59.9694 26.0302 59.7723 25.9346 59.8553Z" fill="#885E38"/>
<path d="M27.5737 59.7305V60.2904C27.7225 60.0004 27.7225 60.0205 27.5737 59.7305Z" fill="#8C5433"/>
<path d="M30.8511 59.8553C30.8393 59.8656 30.8273 60.0627 30.9228 59.9796C30.9346 59.9694 30.9467 59.7723 30.8511 59.8553Z" fill="#926339"/>
<path d="M51.5845 59.8553C51.5727 59.8656 51.5607 60.0627 51.6562 59.9796C51.668 59.9694 51.6801 59.7723 51.5845 59.8553Z" fill="#885E38"/>
<path d="M53.2231 59.7305V60.2904C53.3719 60.0004 53.3719 60.0205 53.2231 59.7305Z" fill="#8C5433"/>
<path d="M56.5006 59.8553C56.4888 59.8656 56.4767 60.0627 56.5722 59.9796C56.584 59.9694 56.5961 59.7723 56.5006 59.8553Z" fill="#926339"/>
<path d="M77.2344 59.8553C77.2226 59.8656 77.2106 60.0627 77.3061 59.9796C77.3179 59.9694 77.33 59.7723 77.2344 59.8553Z" fill="#885E38"/>
<path d="M78.873 59.7305V60.2904C79.0218 60.0004 79.0218 60.0205 78.873 59.7305Z" fill="#8C5433"/>
<path d="M82.1505 59.8553C82.1387 59.8656 82.1266 60.0627 82.2221 59.9796C82.2339 59.9694 82.246 59.7723 82.1505 59.8553Z" fill="#926339"/>
<path d="M102.884 59.8553C102.872 59.8656 102.86 60.0627 102.956 59.9796C102.967 59.9694 102.979 59.7723 102.884 59.8553Z" fill="#885E38"/>
<path d="M29.1412 60.0419C29.1294 60.0521 29.1174 60.2492 29.2125 60.1662C29.2243 60.1559 29.2363 59.9588 29.1412 60.0419ZM54.7909 60.0419C54.7792 60.0521 54.7672 60.2492 54.8623 60.1662C54.8741 60.1559 54.8861 59.9588 54.7909 60.0419ZM80.4407 60.0419C80.429 60.0521 80.417 60.2492 80.5121 60.1662C80.5239 60.1559 80.5358 59.9588 80.4407 60.0419Z" fill="#A85F37"/>
<path d="M5.41517 60.7879C5.40326 60.7982 5.39132 60.9953 5.48673 60.9123C5.49864 60.902 5.51057 60.7049 5.41517 60.7879Z" fill="#926339"/>
<path d="M25.7208 60.7879C25.709 60.7982 25.697 60.9953 25.7925 60.9123C25.8043 60.902 25.8163 60.7049 25.7208 60.7879Z" fill="#885E38"/>
<path d="M27.3599 60.6641V61.224C27.5086 60.934 27.5086 60.9541 27.3599 60.6641Z" fill="#8C5433"/>
<path d="M31.0645 60.7879C31.0527 60.7982 31.0407 60.9953 31.1362 60.9123C31.148 60.902 31.16 60.7049 31.0645 60.7879Z" fill="#926339"/>
<path d="M51.3707 60.7879C51.3589 60.7982 51.3469 60.9953 51.4424 60.9123C51.4542 60.902 51.4662 60.7049 51.3707 60.7879Z" fill="#885E38"/>
<path d="M53.0098 60.6641V61.224C53.1585 60.934 53.1585 60.9541 53.0098 60.6641Z" fill="#8C5433"/>
<path d="M56.7144 60.7879C56.7026 60.7982 56.6906 60.9953 56.7861 60.9123C56.7979 60.902 56.8099 60.7049 56.7144 60.7879Z" fill="#926339"/>
<path d="M77.0206 60.7879C77.0088 60.7982 76.9968 60.9953 77.0923 60.9123C77.1041 60.902 77.1161 60.7049 77.0206 60.7879Z" fill="#885E38"/>
<path d="M78.6592 60.6641V61.224C78.8079 60.934 78.8079 60.9541 78.6592 60.6641Z" fill="#8C5433"/>
<path d="M82.293 60.6641V61.224C82.4417 60.934 82.4417 60.9541 82.293 60.6641Z" fill="#926339"/>
<path d="M102.67 60.7879C102.659 60.7982 102.647 60.9953 102.742 60.9123C102.754 60.902 102.766 60.7049 102.67 60.7879Z" fill="#885E38"/>
<path d="M29.3545 60.9754C29.3428 60.9857 29.3308 61.1828 29.4259 61.0998C29.4377 61.0895 29.4497 60.8924 29.3545 60.9754ZM55.0043 60.9754C54.9926 60.9857 54.9806 61.1828 55.0757 61.0998C55.0875 61.0895 55.0994 60.8924 55.0043 60.9754ZM80.6541 60.9754C80.6423 60.9857 80.6304 61.1828 80.7255 61.0998C80.7372 61.0895 80.7492 60.8924 80.6541 60.9754Z" fill="#A85F37"/>
<path d="M5.62855 61.7215C5.61664 61.7318 5.6047 61.9289 5.7001 61.8459C5.71202 61.8356 5.72395 61.6385 5.62855 61.7215Z" fill="#926339"/>
<path d="M25.5074 61.7215C25.4956 61.7318 25.4836 61.9289 25.5791 61.8459C25.5909 61.8356 25.6029 61.6385 25.5074 61.7215Z" fill="#885E38"/>
<path d="M27.146 61.5967V62.1567C27.2948 61.8666 27.2948 61.8867 27.146 61.5967Z" fill="#8C5433"/>
<path d="M31.2784 61.7215C31.2666 61.7318 31.2546 61.9289 31.3501 61.8459C31.3619 61.8356 31.3739 61.6385 31.2784 61.7215Z" fill="#926339"/>
<path d="M51.1568 61.7215C51.145 61.7318 51.133 61.9289 51.2285 61.8459C51.2403 61.8356 51.2523 61.6385 51.1568 61.7215Z" fill="#885E38"/>
<path d="M52.7959 61.5967V62.1567C52.9447 61.8666 52.9447 61.8867 52.7959 61.5967Z" fill="#8C5433"/>
<path d="M56.9283 61.7215C56.9165 61.7318 56.9045 61.9289 57 61.8459C57.0118 61.8356 57.0238 61.6385 56.9283 61.7215Z" fill="#926339"/>
<path d="M76.8067 61.7215C76.7949 61.7318 76.7829 61.9289 76.8784 61.8459C76.8902 61.8356 76.9022 61.6385 76.8067 61.7215Z" fill="#885E38"/>
<path d="M78.4458 61.5967V62.1567C78.5946 61.8666 78.5946 61.8867 78.4458 61.5967Z" fill="#8C5433"/>
<path d="M82.5068 61.5967V62.1567C82.6556 61.8666 82.6556 61.8867 82.5068 61.5967Z" fill="#926339"/>
<path d="M102.457 61.7215C102.445 61.7318 102.433 61.9289 102.528 61.8459C102.54 61.8356 102.552 61.6385 102.457 61.7215Z" fill="#885E38"/>
<path d="M29.5684 61.9081C29.5566 61.9183 29.5447 62.1154 29.6398 62.0324C29.6516 62.0221 29.6635 61.825 29.5684 61.9081ZM55.2182 61.9081C55.2064 61.9183 55.1945 62.1154 55.2896 62.0324C55.3013 62.0221 55.3133 61.825 55.2182 61.9081ZM80.868 61.9081C80.8562 61.9183 80.8442 62.1154 80.9394 62.0324C80.9511 62.0221 80.9631 61.825 80.868 61.9081Z" fill="#A85F37"/>
<path d="M5.84242 62.6551C5.8305 62.6654 5.81857 62.8625 5.91397 62.7795C5.92588 62.7692 5.93782 62.5721 5.84242 62.6551Z" fill="#926339"/>
<path d="M25.2935 62.6551C25.2817 62.6654 25.2697 62.8625 25.3652 62.7795C25.377 62.7692 25.389 62.5721 25.2935 62.6551Z" fill="#885E38"/>
<path d="M26.9321 62.5303V63.0902C27.0809 62.8002 27.0809 62.8203 26.9321 62.5303Z" fill="#8C5433"/>
<path d="M31.4923 62.6551C31.4805 62.6654 31.4684 62.8625 31.5639 62.7795C31.5758 62.7692 31.5878 62.5721 31.4923 62.6551Z" fill="#926339"/>
<path d="M50.9434 62.6551C50.9316 62.6654 50.9196 62.8625 51.0151 62.7795C51.0269 62.7692 51.0389 62.5721 50.9434 62.6551Z" fill="#885E38"/>
<path d="M52.582 62.5303V63.0902C52.7308 62.8002 52.7308 62.8203 52.582 62.5303Z" fill="#8C5433"/>
<path d="M57.1422 62.6551C57.1304 62.6654 57.1183 62.8625 57.2138 62.7795C57.2256 62.7692 57.2377 62.5721 57.1422 62.6551Z" fill="#926339"/>
<path d="M76.5928 62.6551C76.581 62.6654 76.569 62.8625 76.6645 62.7795C76.6763 62.7692 76.6884 62.5721 76.5928 62.6551Z" fill="#885E38"/>
<path d="M78.2319 62.5303V63.0902C78.3807 62.8002 78.3807 62.8203 78.2319 62.5303Z" fill="#8C5433"/>
<path d="M82.7207 62.5303V63.0902C82.8695 62.8002 82.8695 62.8203 82.7207 62.5303Z" fill="#926339"/>
<path d="M102.243 62.6551C102.231 62.6654 102.219 62.8625 102.314 62.7795C102.326 62.7692 102.338 62.5721 102.243 62.6551Z" fill="#885E38"/>
<path d="M29.7823 62.8417C29.7705 62.8519 29.7585 63.049 29.8537 62.966C29.8654 62.9557 29.8774 62.7586 29.7823 62.8417ZM55.4321 62.8417C55.4203 62.8519 55.4083 63.049 55.5034 62.966C55.5152 62.9557 55.5272 62.7586 55.4321 62.8417ZM81.0818 62.8417C81.0701 62.8519 81.0581 63.049 81.1532 62.966C81.165 62.9557 81.177 62.7586 81.0818 62.8417Z" fill="#A85F37"/>
<path d="M6.05628 63.5878C6.04437 63.598 6.03244 63.7951 6.12784 63.7121C6.13975 63.7018 6.15168 63.5047 6.05628 63.5878Z" fill="#926339"/>
<path d="M25.0797 63.5878C25.0679 63.598 25.0558 63.7951 25.1513 63.7121C25.1632 63.7018 25.1752 63.5047 25.0797 63.5878Z" fill="#885E38"/>
<path d="M26.7188 63.4639V64.0238C26.8675 63.7338 26.8675 63.7539 26.7188 63.4639Z" fill="#8C5433"/>
<path d="M31.7061 63.5878C31.6943 63.598 31.6823 63.7951 31.7778 63.7121C31.7896 63.7018 31.8016 63.5047 31.7061 63.5878Z" fill="#926339"/>
<path d="M50.7296 63.5878C50.7178 63.598 50.7057 63.7951 50.8013 63.7121C50.8131 63.7018 50.8251 63.5047 50.7296 63.5878Z" fill="#885E38"/>
<path d="M52.3682 63.4639V64.0238C52.5169 63.7338 52.5169 63.7539 52.3682 63.4639Z" fill="#8C5433"/>
<path d="M57.3555 63.5878C57.3437 63.598 57.3317 63.7951 57.4272 63.7121C57.439 63.7018 57.4511 63.5047 57.3555 63.5878Z" fill="#926339"/>
<path d="M76.3795 63.5878C76.3677 63.598 76.3556 63.7951 76.4511 63.7121C76.463 63.7018 76.475 63.5047 76.3795 63.5878Z" fill="#885E38"/>
<path d="M78.0181 63.4639V64.0238C78.1668 63.7338 78.1668 63.7539 78.0181 63.4639Z" fill="#8C5433"/>
<path d="M82.9341 63.4639V64.0238C83.0829 63.7338 83.0829 63.7539 82.9341 63.4639Z" fill="#926339"/>
<path d="M102.029 63.5878C102.017 63.598 102.005 63.7951 102.101 63.7121C102.112 63.7018 102.124 63.5047 102.029 63.5878Z" fill="#885E38"/>
<path d="M29.9961 63.7753C29.9844 63.7855 29.9724 63.9826 30.0675 63.8996C30.0793 63.8893 30.0913 63.6922 29.9961 63.7753ZM55.6459 63.7753C55.6342 63.7855 55.6222 63.9826 55.7173 63.8996C55.7291 63.8893 55.741 63.6922 55.6459 63.7753ZM81.2957 63.7753C81.2839 63.7855 81.272 63.9826 81.3671 63.8996C81.3788 63.8893 81.3908 63.6922 81.2957 63.7753Z" fill="#A85F36"/>
<path d="M6.27015 64.5213C6.25824 64.5316 6.2463 64.7287 6.3417 64.6457C6.35362 64.6354 6.36555 64.4383 6.27015 64.5213Z" fill="#926339"/>
<path d="M24.8658 64.5213C24.854 64.5316 24.842 64.7287 24.9375 64.6457C24.9493 64.6354 24.9613 64.4383 24.8658 64.5213Z" fill="#885E38"/>
<path d="M26.5049 64.3975V64.9574C26.6537 64.6674 26.6537 64.6875 26.5049 64.3975Z" fill="#8C5433"/>
<path d="M31.9195 64.5213C31.9077 64.5316 31.8957 64.7287 31.9912 64.6457C32.003 64.6354 32.015 64.4383 31.9195 64.5213Z" fill="#926339"/>
<path d="M50.5157 64.5213C50.5039 64.5316 50.4919 64.7287 50.5874 64.6457C50.5992 64.6354 50.6112 64.4383 50.5157 64.5213Z" fill="#885E38"/>
<path d="M52.1548 64.3975V64.9574C52.3036 64.6674 52.3036 64.6875 52.1548 64.3975Z" fill="#8C5433"/>
<path d="M57.5694 64.5213C57.5576 64.5316 57.5456 64.7287 57.6411 64.6457C57.6529 64.6354 57.6649 64.4383 57.5694 64.5213Z" fill="#926339"/>
<path d="M76.1656 64.5213C76.1538 64.5316 76.1418 64.7287 76.2373 64.6457C76.2491 64.6354 76.2611 64.4383 76.1656 64.5213Z" fill="#885E38"/>
<path d="M77.8042 64.3975V64.9574C77.953 64.6674 77.953 64.6875 77.8042 64.3975Z" fill="#8C5433"/>
<path d="M83.1479 64.3975V64.9574C83.2967 64.6674 83.2967 64.6875 83.1479 64.3975Z" fill="#926339"/>
<path d="M101.816 64.5213C101.804 64.5316 101.792 64.7287 101.887 64.6457C101.899 64.6354 101.911 64.4383 101.816 64.5213Z" fill="#885E38"/>
<path d="M30.2095 64.7079C30.1978 64.7181 30.1858 64.9153 30.2809 64.8322C30.2927 64.8219 30.3046 64.6248 30.2095 64.7079ZM55.8593 64.7079C55.8475 64.7181 55.8356 64.9153 55.9307 64.8322C55.9424 64.8219 55.9544 64.6248 55.8593 64.7079ZM81.5091 64.7079C81.4973 64.7181 81.4854 64.9153 81.5805 64.8322C81.5922 64.8219 81.6042 64.6248 81.5091 64.7079Z" fill="#A85F36"/>
<path d="M6.48353 65.4549C6.47162 65.4652 6.45968 65.6623 6.55508 65.5793C6.567 65.569 6.57893 65.3719 6.48353 65.4549Z" fill="#926339"/>
<path d="M24.6524 65.4549C24.6406 65.4652 24.6286 65.6623 24.7241 65.5793C24.7359 65.569 24.7479 65.3719 24.6524 65.4549Z" fill="#885E38"/>
<path d="M26.291 65.3301V65.8901C26.4398 65.6 26.4398 65.6201 26.291 65.3301Z" fill="#8C5433"/>
<path d="M30.3521 65.3301V65.8901C30.5008 65.6 30.5008 65.6201 30.3521 65.3301Z" fill="#835033"/>
<path d="M32.1334 65.4549C32.1216 65.4652 32.1096 65.6623 32.2051 65.5793C32.2169 65.569 32.2289 65.3719 32.1334 65.4549Z" fill="#926339"/>
<path d="M50.3018 65.4549C50.29 65.4652 50.278 65.6623 50.3735 65.5793C50.3853 65.569 50.3973 65.3719 50.3018 65.4549Z" fill="#885E38"/>
<path d="M51.9409 65.3301V65.8901C52.0897 65.6 52.0897 65.6201 51.9409 65.3301Z" fill="#8C5433"/>
<path d="M56.002 65.3301V65.8901C56.1507 65.6 56.1507 65.6201 56.002 65.3301Z" fill="#835033"/>
<path d="M57.7833 65.4549C57.7715 65.4652 57.7595 65.6623 57.855 65.5793C57.8668 65.569 57.8788 65.3719 57.7833 65.4549Z" fill="#926339"/>
<path d="M75.9517 65.4549C75.9399 65.4652 75.9279 65.6623 76.0234 65.5793C76.0352 65.569 76.0472 65.3719 75.9517 65.4549Z" fill="#885E38"/>
<path d="M77.5908 65.3301V65.8901C77.7396 65.6 77.7396 65.6201 77.5908 65.3301Z" fill="#8C5433"/>
<path d="M81.6519 65.3301V65.8901C81.8006 65.6 81.8006 65.6201 81.6519 65.3301Z" fill="#835033"/>
<path d="M83.3618 65.3301V65.8901C83.5106 65.6 83.5106 65.6201 83.3618 65.3301Z" fill="#926339"/>
<path d="M101.602 65.4549C101.59 65.4652 101.578 65.6623 101.673 65.5793C101.685 65.569 101.697 65.3719 101.602 65.4549Z" fill="#885E38"/>
<path d="M6.6974 66.3885C6.68548 66.3988 6.67355 66.5959 6.76895 66.5129C6.78086 66.5026 6.7928 66.3055 6.6974 66.3885Z" fill="#926339"/>
<path d="M24.4385 66.3885C24.4267 66.3988 24.4147 66.5959 24.5102 66.5129C24.522 66.5026 24.5341 66.3055 24.4385 66.3885Z" fill="#895E38"/>
<path d="M32.3472 66.3885C32.3354 66.3988 32.3234 66.5959 32.4189 66.5129C32.4307 66.5026 32.4427 66.3055 32.3472 66.3885Z" fill="#926339"/>
<path d="M50.0885 66.3885C50.0766 66.3988 50.0646 66.5959 50.1601 66.5129C50.1719 66.5026 50.184 66.3055 50.0885 66.3885Z" fill="#8A5F38"/>
<path d="M57.9971 66.3885C57.9853 66.3988 57.9733 66.5959 58.0688 66.5129C58.0806 66.5026 58.0927 66.3055 57.9971 66.3885Z" fill="#926339"/>
<path d="M75.7379 66.3885C75.7261 66.3988 75.714 66.5959 75.8095 66.5129C75.8214 66.5026 75.8334 66.3055 75.7379 66.3885Z" fill="#8A5F38"/>
<path d="M83.5757 66.2637V66.8236C83.7245 66.5336 83.7245 66.5537 83.5757 66.2637Z" fill="#926339"/>
<path d="M101.388 66.3885C101.376 66.3988 101.364 66.5959 101.459 66.5129C101.471 66.5026 101.483 66.3055 101.388 66.3885Z" fill="#885E38"/>
<path d="M6.83984 67.1973V67.7572C6.98863 67.4672 6.98863 67.4873 6.83984 67.1973Z" fill="#926339"/>
<path d="M24.2247 67.3212C24.2129 67.3314 24.2009 67.5285 24.2964 67.4455C24.3082 67.4352 24.3202 67.2381 24.2247 67.3212Z" fill="#885E38"/>
<path d="M32.4897 67.1973V67.7572C32.6385 67.4672 32.6385 67.4873 32.4897 67.1973Z" fill="#926339"/>
<path d="M49.8746 67.3212C49.8628 67.3314 49.8508 67.5285 49.9463 67.4455C49.9581 67.4352 49.9701 67.2381 49.8746 67.3212Z" fill="#895E38"/>
<path d="M58.1396 67.1973V67.7572C58.2884 67.4672 58.2884 67.4873 58.1396 67.1973Z" fill="#926339"/>
<path d="M75.5245 67.3212C75.5127 67.3314 75.5007 67.5285 75.5962 67.4455C75.608 67.4352 75.62 67.2381 75.5245 67.3212Z" fill="#895E38"/>
<path d="M83.7891 67.1973V67.7572C83.9378 67.4672 83.9378 67.4873 83.7891 67.1973Z" fill="#926339"/>
<path d="M101.174 67.3212C101.162 67.3314 101.15 67.5285 101.246 67.4455C101.257 67.4352 101.269 67.2381 101.174 67.3212Z" fill="#885E38"/>
<path d="M8.05112 68.5655C7.95611 68.6485 8.18174 68.6381 8.19361 68.6278C8.28862 68.5447 8.06298 68.5552 8.05112 68.5655Z" fill="#CD8443"/>
<path d="M33.7011 68.5655C33.6059 68.6485 33.8317 68.6381 33.8434 68.6278C33.9385 68.5447 33.7128 68.5552 33.7011 68.5655Z" fill="#CD8443"/>
<path d="M59.351 68.5655C59.2558 68.6485 59.4816 68.6381 59.4933 68.6278C59.5884 68.5447 59.3627 68.5552 59.351 68.5655Z" fill="#CD8443"/>
<path d="M85.0004 68.5655C84.9053 68.6485 85.131 68.6381 85.1427 68.6278C85.2379 68.5447 85.0121 68.5552 85.0004 68.5655Z" fill="#CE8543"/>
<path d="M10.4736 70.183C11.4825 70.5528 12.8077 70.3697 13.8936 70.3697H20.7335C19.7247 69.9999 18.3995 70.183 17.3136 70.183H10.4736ZM36.1234 70.183C37.1323 70.5528 38.4575 70.3697 39.5434 70.3697H46.3833C45.3744 69.9999 44.0492 70.183 42.9634 70.183H36.1234ZM61.7732 70.183C62.7821 70.5528 64.1073 70.3697 65.1932 70.3697H72.0331C71.0242 69.9999 69.699 70.183 68.6131 70.183H61.7732ZM87.423 70.183C88.4319 70.5528 89.7571 70.3697 90.843 70.3697H97.6829C96.674 69.9999 95.3488 70.183 94.2629 70.183H87.423Z" fill="#473A2D"/>
</svg>
